
<?xml version="1.0" encoding="UTF-8"?>
<svg enable-background="new 0 0 1400 980" version="1.1" viewBox="0 0 1400 980" xml:space="preserve" xmlns="http://www.w3.org/2000/svg" xmlns:xlink="http://www.w3.org/1999/xlink">
	
		<defs>
			<rect id="c" width="1400" height="980"/>
		</defs>
		<clipPath id="a">
			<use overflow="visible" xlink:href="#c"/>
		</clipPath>
		<linearGradient id="b" x1="699.5" x2="699.5" y1="311" y2="4.6799" gradientUnits="userSpaceOnUse">
			<stop stop-color="#FFF68B" offset="0"/>
			<stop stop-color="#F3CC28" offset="1"/>
		</linearGradient>
		<rect x="-.5" y="-1" width="1400" height="514" clip-path="url(#a)" fill="url(#b)"/>
		<g clip-path="url(#a)">
			
				<path d="m177 287.8s-34 42-38 48-9 12-9 12-31 14-31 16-2 22-2 22-24 22-26 28 0 18.1 0 18.1-10 7.4-16 10.6 3.5 5.4-26 0.3-29.5-5.1-29.5-5.1-153.9 89.8-96.5 92.4 279.3-7.8 305.6-23.1c26.4-15.3 29.9-91.5 40.4-103.3s-72-115.9-72-115.9z" fill="#FEC546"/>
				<path d="m649.8 469.3-112.8-31.7s-43.3-36.1-51.7-41.9c-8.3-5.9-84.3-25.2-84.3-25.2h-110s-28-22.6-30-22.6-56-60-56-60h-28l20 90.8-20 64.3 20 46.6s29.4 61.4 110.7 72.9 368 13.6 368 13.6l-25.9-106.8z" fill="#F0B32F"/>
				<path d="m921 297.8 17 20s31.2 18 32.1 18 16.9 28 16.9 28l33.7 6.6 92.3 25.2 82 65.5 50-22.3s22-19.1 34-13.1 54 17.1 54 17.1l108 52.2 74 44.6-153 37.8-243-37.8-141.4-39.8s-88.9-22.6-86.6-38.6 30-163.4 30-163.4z" fill="#F0B32F"/>
				<path d="m1005 461.2c-6-13.4-48-47.4-50-57.4s0-40 0-40-34-46-34-52 0-14 0-14-16 38-26 38-38 12-38 12h-38l-30 22.6-14 9.1h-46.4l-95.4 77.2-147.9 43.6s49 29.6 79.6 33.6 260.1 41.9 290.1 45.9 165.7-48 165.7-48l-15.7-70.6z" fill="#FEC546"/>
				<path d="m652.5 370.4 28.2 26.6 29 8.3s0.7 26.3 0 31.4-2.2 6.7 8.5 10.1c10.7 3.3 50.5-5 58.8 3.3s26.6 25.4 36.5 33.2 30.8 1.1 30.8 1.1 111.9 125 125.1 128.3c13.3 3.3-212.5-23.1-229-28.4s-111.5-47.1-114.4-59.2c-2.7-12 26.5-154.7 26.5-154.7z" fill="#ED9B18"/>
				<path d="m506.5 544.2c5 0.5 47.9-29 51.3-41.6 3.5-12.7 7.8-37.5 7.8-37.5h17.2l6.7-8.3 4.9-41.5 31.7-51.4 26.3 6.6 9.5 38.2 18.7 13.3s3.2 23.2 0 41.5 31.1 12.2 31.1 12.2l18.5 0.3h13.6l11.6-0.3s9.6 22.1 35.4 37.3 115.6 76.6 128.9 79.9 18.3 23.2-15.7 22.4-382 30.4-377.1 19.1-20.4-90.2-20.4-90.2z" fill="#FBAE20"/>
				<path d="m1105 335.8 38 24s6 36 10 42 12 8 18 20 40 24 40 24v18s56 8 70 14 74-26 80-26 39 4 39 4 67 126 77 132-304.2 49.9-304.2 49.9l-101.8-115.9s6-116 14-118 20-68 20-68z" fill="#E2571A"/>
				<path d="m319 347.8s54 52 100 78 110.5 49.9 111.3 55.9c0.7 6.1 49.6 6 89.9 16.9 40.4 11 106.6-44.9 106.6-44.9l86.3 40s53.9 0.4 59.9 1.2 12-14.8 40 0 166.3 55.1 220 67.3c53.7 12.3 146-2 146 3.7s-50 108.2-50 108.2-409.5-31.5-560.1-52.5-283.9 24-287.9-14-62-259.8-62-259.8z" fill="#E87413"/>
				<path d="m-31 493.8c48-10 74-13.5 86-18.8s14-6.4 30-13.8 52-18.4 52-18.4 70-39.1 76-39.1 36 0 36 0l50-56h20s24 52 30 60 14 25.4 28 34.7 74 47 80 56.1 65.6 70.3 65.6 70.3l156.4 95-750 10.5 40-180.5z" fill="#F5841F"/>
				<path d="m509.8 574.6c12.8-5.6 233.8-112 262.8-99.6s68.4-13.8 68.4-13.8 48-16 64-18.7 24.1 2.7 33 0c9-2.7 25-18.7 25-18.7l10.3-10h15.7l38-18.1c10 2.1 61.9-35.9 61.9-35.9l16.1-24 8 59.9v24.1l14 22.7 6 46.9 33.2 56.7 16.8 92.6-361.6-36.9-311.6-27.2z" fill="#F16822"/>
				
					<path d="m1433.6 512.1s8.1-11-2.5-11-12.9-6.8-25.4-6.8-20.5-5.5-20.5-5.5l-21-11.5s-11.3-22.5-28.6-15c-17.3 7.4-25.4 17.1-25.4 17.1s-5.3 16.6-17.8 16.6-5.8-18.5-19.7-9.3c-13.9 9.3-19.7 19-29.3 19s-12.6 11.1-24.1 11.1-37.3 25.4-37.3 25.4-5.9-23.9-15.5-36.3-26-3.7-26-3.7c-29.8 0-37.5-10.3-37.5-10.3-26-12.4-38.7-20.3-38.7-20.3-26.9 0-32-18.7-32-18.7-33.2-11.7-38.9-14-38.9-14-13.5 6.2-22.1 20.2-22.1 20.2-26 0-40.4 22.1-40.4 22.1-19.9 2.5-39.4 18.5-39.4 18.5-65.1 28.3-43.4 28.4-82.7 28.4h-30.8s-33.7 1.2-48.1 8.7c-14.4 7.4-17.3 1.2-32.7 7.4s-24 22.2-47.1 22.2h-32.7l-12.6 76.6 74.2 20.8 12.3-75h40.4l25-3.7 34.6-2.5 294.2 39.6 47.1 6.2 44.2 7.4 113.3 60.4 143.4-56.7v-127.4z" fill="#A63523"/>
					<path d="m1433.6 639.4v-127.3s8.1-11-2.5-11-12.9-6.8-25.4-6.8-20.5-5.5-20.5-5.5l-21-11.5s-11.3-22.5-28.6-15c0 0-4.6 7.5 0 29.4 4.6 22 12.1 12.6 12.1 33.6s-3.8 26.9-11.3 38.6-19.6 11.9-7.5 30.8 18.3 38.9 18.3 48.3l-182-10.9 55-12.5s-11.3-16.4-17.8-33c-3.6-9.1-14.9-23.9-18.3-37.2-3.4-13.4-17.7-43.5-17.7-43.5-9.6-12.4-26-3.7-26-3.7-29.8 0-37.5-10.3-37.5-10.3-26-12.4-38.7-20.3-38.7-20.3-26.9 0-32-18.7-32-18.7-33.2-11.7-38.9-14-38.9-14s-7.9 18.8 0 31.2 14.5 17.9 7.9 28c-6.5 10.2-15.5 10.2-11 17.2s18 4.5 18 23.3-8.7 22.6-8.7 32.3 6.8 20.4 10.3 25.8 148.3 63.3 148.3 63.3" fill="#992A1F"/>
				
				
					<path d="m-29.2 655.9s15.6-31.3 33.1-31.3 51.4-61 66.2-43c32.9 40.2 184.2 43 184.2 43s13.6 7.4 21.4 0 25.3-7.4 25.3-7.4 16.5-8.3 25.3 0 22.9 16.1 31.1 8.3c8.3-7.8 19.9-18.9 19.9-18.9s15.1 0 22.9 0h31.1 17.5s6.1-5.8 11.9-11.3 18.5-17.5 18.5-17.5 14-5.9 20.2 0 15.4 0.2 21.4 5.9 33.1 11.4 33.1 11.4-2.8-0.7 7.8 0 35 0.7 35 0.7h29.2s33.1 8.1 41.6 0 48.9-21.9 55.7-28.3 5.8-21.2 22.4-21.2c16.5 0 30.1-9.5 40.1 0 10.1 9.5 40.5-103.4 59-103.4 18.4 0 25.9 23.1 40.9 23.1 20 0 22.4 29 32.2 29 9.7 0 19.5 20.9 31.1 20.9 11.7 0 20.7-9 32.7 2.3s23.3 13.9 38 27.9 31.4 10.4 47 10.4 19.8 23.2 47 15.1 49.3 12.4 74.6 12.4 81.7 14.7 91.4 14.7 29.2 11.1 40.9 11.1 18.5-12 31.1 0 18 28.1 35 12 13.6-16.1 33.1-16.1 26.5 6.2 33.1 0 18.1 0.6 25.3-6.2 23.3-6.8 23.3-6.8l16.2-15.4h13l-7.6 427.7-1571.6-25v-324.1s1.9-16.6 19.4 0z" fill="#88201B"/>
					<path d="m1530.5 894.9v-318h-13l-16.2 15.4s-16.2 0-23.3 6.8c-7.2 6.8-18.7 0-25.3 6.2s-13.6 0-33.1 0-16.1 0-33.1 16.1-22.4 0-35-12-19.5 0-31.1 0c-11.7 0-31.1-11.1-40.9-11.1s-66.1-14.7-91.4-14.7-47.3-20.5-74.6-12.4c-27.2 8.1-31.4-15.1-47-15.1s-32.3 3.5-47-10.4c-14.7-14-26-16.5-38-27.9-12-11.3-21-2.3-32.7-2.3s-21.4-20.9-31.1-20.9-12.2-29-32.2-29c-15 0-22.5-23.1-40.9-23.1 0 0-9.1 4.6-1.7 13.1s9.7 11.6 7.3 23.6c-2.3 12-18.9 39.4 15.3 73.9s52.9 51.9 43.6 92.1 16.4 47.2 38.4 49.5 21.6 20.6 22 53.4-38.8 50.9 4.3 85c43 34.1 48.7 85.9 48.7 85.9s508.3-28.5 507.7-26.3" fill="#771313"/>
				
				<path d="m728.6 442.8" fill="#771313"/>
			
			
				<rect x="-34.4" y="1059.9" width="1586.4" height="168.2" clip-rule="evenodd" fill="#A03C1A" fill-rule="evenodd"/>
			
			<path d="m1197.8 823.5s-25.7-8.9-37.6-20.9-17.9-26-29.8-40-35.8-12-35.8-12-16.4 2-25.3-14-37.3-86-37.3-86h-8.9v23.5l-13.4 18.5v22s-11.9 46-14.9 58-6 24-13.4 28c-7.5 4-19.4 14-19.4 14l-22.4 68h-77.6s-32.8-40-58.1-42-71.6-8-82 6-28.3 38-56.7 46c-28.3 8-64.1-2-95.4-10s-58.1-32-79-36-40.3-10-49.2-20-5.1-45.6-10.8-64.8c-5.6-19.2-20.5-11.2-29.5-33.2-8.9-22-13.4-32-13.4-32l-7.5-6-7.5 16s0 4-16.4 22-16.4 18-16.4 18v38s0 16-13.4 34-10.4 32-10.4 38-31.3 14-31.3 14l-17.9 66 58.1 108 1001.9 104s52.2-122 53.7-144-11.9-250-11.9-250l-171.1 68.9z" fill="#530000"/>
			<path d="m1032 650.6 8.9 104 14.9 34 11.7 22 50.9 30.4v74.3l12 63.3s40.3 62 41.7 68 109.7 6 109.7 6 68.5-42 68.1-50-16.8-172-16.8-172l-99.9-42-43.1-10.7-1.7-9.3-10.4-42-31.3-10-7.5-24-11.9 6-22.4-14.7s-11.9-15.3-22.4-15.3-32.8-37.2-32.8-37.2l-17.7 19.2z" fill="#470B0A"/>
			<path d="m177 963-34.7-99.3s-19.3-22.7-19.3-21.7-8-10.6-8-10.6 12-8.4 0-8.4-30-8-30-8v16.4l-14.9-24.4s-1.1-14-9.1-24-4 12.6-20-14.7-22-33-22-33h-40l-27.6-11.3 35.6 292.7 226 10.4-36-64.1z" fill="#470B0A"/>
			
				
					<path d="m132.1 1016.6s-4.7-33.9 0-38.5c4.7-4.7 4.7-12.8 4.7-12.8v-12.8-8.2l-3.5-15.2 5.3-5.3c0-8.8 13.4-8.8 6.7-15.5s2.6-6.7-2-11.4c-4.7-4.7 4.7-4.7 0-9.3-4.7-4.7-8.5-9.6-4.7-13.4s-1-5.7 3.8-10.5l4.8-4.8c5.3-5.3 5.3-12.7 5.3-12.7v-17.5l6.2-6.2-2-30v-30.3s9.9-2.3 9.9-9.9 0.9-8.5 6.1-13.7c6.4-6.4 7.9-12.8 12.8-12.8h5 8.2v-23.1s5.8 3.5 5.8-5.8 5.8-15.2 0-21l-9.3-9.3s-5.8-3.5 0-9.3 5.8-11.7 5.8-11.7v-10.5c0-5.8 15.2-46.7 15.2-46.7s3.5-8.8 8.8-8.8 1.8-5.3 5.3-8.8 3.5-5.8 3.5-12.8 3.5-10.5 3.5-10.5l20.4-20.4h11.1c9.3 1.8 18.1-7 18.1-7l16.9 11.1s-5.3 11.1 0 16.3c5.3 5.3 12.8 5.3 19.8 5.3s3.5 9.9 7 13.4 3.5 1.2 3.5 9.3c0 8.2 5.8 3.5 10.5 8.2s-1.8 5.3 4.7 11.7l6.4 6.4c7.6 7.6 7.6 7.6 7.6 15.8s-7.6 13.4 0 21 7.6 16.3 7.6 16.3v45.4l8.8 24.5h10.5c5.8 0 9.3 3.5 9.3 3.5s0 5.8 0 11.7c0 5.8 4.7 3.5 4.7 10.5s7 14 7 14l20.4 20.4s0 8.8 0 13.4v18.7l7.6 11.7h12.8l4.7 18.7s10.5 37.4 10.5 43.2c0 16.3 5.3 21.6 5.3 21.6s-4.4 5.5 0 9.9 4.4 5.8 4.4 11.7v11.7s-3.4 9.5 0 12.8c3.4 3.4-1.8 35.7 3.4 40.9s5.2 17.5 5.2 17.5h-353.4z" fill="#3A0013"/>
					<path d="m957 1025c-4-6-19-46-19-46s-7-26-15-42-10-14-27.4-22.8v-1.5-4.3c0-6-1.8-8.5-3.9-10.7 4.1-9.5 13.2-20.6 13.2-28.7 0-14-8-18-8-18l-13.2 5.6c-0.7-1.3-2.5-2.7-6.6-4.3-15.2-6.1-15.2-15.5-19.8-10.8-4.7 4.7-10.8 4.7-10.8 4.7-2-2-3.6-3.9-4.8-5.5l-3.8-8.2s19-23.5 1-57.5c-1.9-3.6-3.9-7.4-5.9-11.2 0-0.1-0.1-0.1-0.1-0.2-5.5-10.7-16-62.5-16-62.5l-19.8-46-27.3-4.9c0-10.2-4-12.3-6.6-16.8-1.6-2.8-3.2-5-4.6-6.7l14.3-17.2h-10.6l8.3-9.2v-9.3c0-4.7-9.3-7-9.3-14s4.1-19.3 0-23.3c-4.1-4.1 0.3-12-4.1-16.3l-1.7-5.2c0.1-3.8 1.4-8.3-2.7-12.3-0.8-0.8-1.5-1.5-2.2-2.1l-4-11.9c0-4.6-1.3-5.9-2.7-7.3l-2.9-7.7c0-5.2-1.9-7.5-3.6-9.6l-2.7-7.2c0.3-4.9 2.9-2.6-3.3-8.9l-15.5-41.7-14.9-21.4-10.4 9.7-0.4 0.4s-26.8-13.4-34.9-18.8c-5.3-3.6-11.5 12.9-15.1 24.6h-2.5-12.8-14c-12.8 0-12.8 8.1-12.8 8.1s0 4.2 0 8.2l0.3 0.3-0.3-0.3c-9.9-9.9-4.7-15.2-4.7-15.2-10.5 0-10.5 0-14 3.5s-2.9-1.8-8.2 3.5c-5.8 5.8 8.2 1.2 1.2 12.8l-7 11.7s-10.5 1.2-14-2.3-7-3.5-11.7-3.5h-1.3-0.4-2.9c-7 0-7.6 0.6-12.3 5.3s0 1.8 0 9.3v2.6 0.4 4.6c0 10.5-4.4 14.9-4.4 14.9s-4.5-4.5-7.1-4l-16.1-9v20l-22.2 13.2c-4.4 7.2-1.9 19.9 1.9 34.2h-6.3s-1.2 20.6-1.2 27.7 11.7 7 5.8 12.8c-5.8 5.8-3.5 5.8-3.5 12.8s-5.8 1.2 0 7 5.8 5.8 5.8 11.7c0 5.8 6.4 21.6 0 28s-6.4-2.3-6.4 6.4c0 8.8 0.9 7.9-3.8 12.5-4.7 4.7-0.4 8.3-4.7 12.5-4.2 4.2-4.2-6.7-4.2 4.2v16.8c0 5.8-4.3 8.5 0 12.8s-5.4-1.2-5.4 9.3v17.5s0 4.7 0 10.5v14 0.6 2.2 6.5 18.7c0 8.2 8.2 16.3 0 24.5s-1.2 3.5-1.2 15.2-10.5 5.8-5.3 16.9c2.5 5.2 7.9 24.5 13 44.1l-44.5 85.5s-74 46-66 54 134 30 134 30l15.4-9v14.6s-7-2.3-7 7 4.7 14 4.7 14h442.4s3.5-19.8 0-23.3 2.3-8.2-3.5-14l-5.8-5.8c-0.1 0 33.8-3.5 29.8-9.5zm-356.8-588.3zm1.9 1.9c0.3 0.3 0.3 0.3 0 0z" fill="#310004"/>
					<path d="m1426.6 596.7h-17.5s-7 1.2-7 7v5.8s-9.3 7-12.8 10.5l-3.5 3.5c-5.8 5.8-7.9 0.9-12.8 5.8-9.3 9.3-10.5 9.3-23.3 9.3h-21c0 10.5-11.7 10.5-5.8 16.3 5.8 5.8 2.9 1.8-1.2 5.8-4.1 4.1-3.5 4.1-12.8 4.1h-9.3c-14 0-9.6 4.4-14 0s5.8-14.6-8.8 0-21.6 14.6-21.6 14.6c0 9.3-5.3 8.8-5.3 14.6 0 12.3-7 4.7-14.6 12.3-11.7 11.7-11.7 12.8-11.7 17.5s3.5 10.5 0 14 2.3 9.3-3.5 9.3-5.8 8.2-5.8 8.2 5.8 4.7 0 10.5l-11.7 11.7c-3.5 3.5-3.5 3.5-3.5 10.5s-3.5 3.5-3.5 10.5-11.7 3.5 0 15.2 15.8 16.9 11.7 21c-7.6 7.6-7.6 8.2-7.6 12.8v17.5 10.5 13s-4.1 22-4.1 37.2-5.8 50.2-5.8 67.7v64.2s4.7 8.2 4.7 8.2h232.3v-469.1z" fill="#32000A"/>
				
				<path d="m701 402.1c-10.9-26.6-40.7-19.3-40.7-19.3-0.5-2.6-2.8-0.7-2.8-0.7s-1-3.5-1.9-6.6-3.2-2.4-3.2-2.4-2.5-7.2-3.5-10.1-1.5-1.5-1.5-1.5-0.6-1-0.6-2.4c0-1.3 2.4-1 5-1s2.1 2.1 4.1 2.1c2.1 0 1.2-2.6 3.1-4.6 1.9-1.9 0.9-3.4 0.9-3.4s-2.2-3.2-4-3.2-3.1 1.5-6 1.5-12.4-10-16.6-12.6c-4.3-2.6-5-6.3-6.2-9.9-1.2-3.5-6-14.3-7.1-17.3s-5.4-5.4-5.4-6.8c0-1.5 2.2 0 4.6 0s0.7-2.3 1.5-3.1 0 0 0-1.8 0-0.8 1.2-2.1c1.2-1.2 0-1.7-1.7-3.4s0-1.6 0-2.4v-3.1c0-1.8 2.3-0.8 3.6-2.1s2.1-2.1 0.2-2.1-1.3-1.3-3.1-3.1-8.1-4.9-13.7-3.7-10.7 6.5-13.1 7.4-2.9 2.9-1.9 3.8c1 1 2.1 0.9 2.1 3.9s2.2 2.2 3.8 3.8c1.5 1.5 3.5 1.7 4.9 3.1s1.2 3.1 1.2 5.6-7.1 6.4-8.3 6.4c-1.3 0-1.5 1.5-3.3 3.3s-5.6 10-7.8 14.3-3.5 6.8-3.5 10.1c0 3.4 13.1 21.6 13.1 21.6s-12.9 0.7-16.8 0c-3.8-0.7-4.4 1.8-4.4 1.8 0 2.9 5.1 2.8 5.1 2.8-5.4 3.2-4.6 8.4-4.6 9.3 0 5.9 15.7 3.4 15.7 3.4l2.5 9.6h-1.5v1.5h2.4v2.4l-6.9 4.4c-2.2-2.2-14.1-11.3-27.8-10.3s-29.6 11.9-33.7 29.9c-4.1 17.9 7.2 40.6 36.2 41.3s34-31 34-31h1.5c1.6 10.4 10.6 7.2 10.6 7.2s3.5 6.3 2.5 7.4c-1 1-1.8 4.5-0.7 7.9 1.1 3.5 4.1 1.8 14.9 3.1 10.7 1.3 9-1.3 9.4-3.4s-6.3-3.8-6.3-3.8c-5.6-1.5-8.5-5.1-8.5-5.1l5.3-12.6s0 1.6 1.5 1.6 1.2-0.6 2.1-1.5-1.6-3.7-1.6-3.7 7.6-16.6 9.7-18.7-1.8-17.4-1.8-17.4 10.4-14.4 12.1-14.4c1.6 0 2.1 2.1 2.1 2.1 0.7 2 1.6 1.6 1.6 1.6 0.7 2.1 1.5 1.5 1.5 1.5l2.6 9.6c-22.5 10.4-17.8 41.2-17.8 41.2 6.6 27.5 37.2 24.9 45.3 22.9 7.9-2 31.3-22.1 20.4-48.8zm-111.5-33.8s2-1.1 0.4-2.6c0 0 3.9-0.8 5.3-2.2s2.2 0.5 3.3 0.5-0.5 1.1 1.1 4.9 3.5 9.6 3.5 14.6v2.1l-7.6 4v-2.2l1.4-1.4v-0.8h-2.1l-5.3-16.9zm-31.3 81c-24.9-5.3-33.1-21.5-24.9-40s34.3-23 46.5-10.9l-17.9 12.9s-10.1-0.9-10.1 8.5 5.3 9.9 7.6 9.9c2.4 0 6.9-2.6 7.7-5.4l20.8 1.1c0 0.1-4.9 29.2-29.7 23.9zm9.7-28.8c0-1.6-2.9-5.4-2.9-5.4l17.4-12.8c5.7 1.8 6.6 18.2 6.6 18.2h-21.1zm29.1-8.8c0.9 2.2 0.9 2.5 0.9 3.4s-0.4 4-2.4 4c-1.9 0 2.3-11-7.8-21l5.7-4.3 4.9 15.3c0-0.1-2.2 0.4-1.3 2.6zm6.3 1.3h-1.2s-3.8-19.4-5.4-21l7.4-3.7s0.8 20-0.8 24.7zm14.7-22.6c3.2 3.2 2.2 7.5 1.1 8.6s-1.7 1.7-1.7 1c0.1-0.8 0.6-9.6 0.6-9.6zm1.4 17.3c-2.1 2.1-3.2 8.1-4.1 11.5s-1.5 2.8-1.5 2.8c0-1 1.6-10.7 1.6-10.7l7.4-10.1c-0.1 1.8-1.3 4.4-3.4 6.5zm18.9-35.7s-3.1 3.1-4.7 6-1.5 1.5-1.5 1.5l-1.2-5.1s3.8-2.4 6.3-3.4 1.1 1 1.1 1zm4.8-16.7s-1.8-1.8-2.7 0.5c-0.9 2.4 1.6 3.4 2.4 4.1 0.7 0.7 0 2.8 0 4s-13.4 6.2-13.4 6.2c-1.3 0-3.4-7.6-3.4-10s-1.7-12.1-1.7-14.1c0-2.1 0-4.5 1.3-3.2s7.3 7.3 12.3 8.6 7.3 2.3 8.2 3.2c1 1-3 0.7-3 0.7zm35.1 89.6c-20.4 9.3-34-11.6-35.9-16.9s-4.3-24.9 12.9-34.6l9.3 24s2.2 6.6 7.9 3.4c0 0 2.8-1 1.2-5.3s-5.6-2.4-5.6-2.4l-7.5-22.4s20-7.2 30.3 8.1c10.3 15.4 7.8 36.9-12.6 46.1z" fill="#31130F"/>
			
		</g>
	
</svg>
