<?xml version="1.0" encoding="utf-8"?>
<!-- Generator: Adobe Illustrator 19.0.0, SVG Export Plug-In . SVG Version: 6.00 Build 0)  -->
<svg version="1.1" id="Layer_1" xmlns="http://www.w3.org/2000/svg" xmlns:xlink="http://www.w3.org/1999/xlink" x="0px"
	y="0px" width="1400px" height="980px" viewBox="0 0 1400 980" enable-background="new 0 0 1400 980"
	xml:space="preserve">
	<g>
		<defs>
			<rect id="SVGID_1_" width="1400" height="980" />
		</defs>
		<clipPath id="SVGID_2_">
			<use xlink:href="#SVGID_1_" overflow="visible" />
		</clipPath>
		<linearGradient id="SVGID_3_" gradientUnits="userSpaceOnUse" x1="699.5" y1="311" x2="699.5" y2="4.6799">
			<stop offset="0" style="stop-color:#FFF68B" />
			<stop offset="1" style="stop-color:#F3CC28" />
		</linearGradient>
		<rect x="-0.5" y="-1" clip-path="url(#SVGID_2_)" fill="url(#SVGID_3_)" width="1400" height="514" />
		<g clip-path="url(#SVGID_2_)">
			<g>
				<path fill="#FEC546" d="M177,287.8c0,0-34,42-38,48s-9,12-9,12s-31,14-31,16s-2,22-2,22s-24,22-26,28s0,18.1,0,18.1
				s-10,7.4-16,10.6s3.5,5.4-26,0.3s-29.5-5.1-29.5-5.1l0,0c0,0-153.9,89.8-96.5,92.4s279.3-7.8,305.6-23.1
				c26.4-15.3,29.9-91.5,40.4-103.3S177,287.8,177,287.8z" />
				<path fill="#F0B32F" d="M649.8,469.3L537,437.6c0,0-43.3-36.1-51.7-41.9c-8.3-5.9-84.3-25.2-84.3-25.2H291c0,0-28-22.6-30-22.6
				s-56-60-56-60h-28l20,90.8l-20,64.3l20,46.6c0,0,29.4,61.4,110.7,72.9s368,13.6,368,13.6L649.8,469.3z" />
				<path fill="#F0B32F" d="M921,297.8l17,20c0,0,31.2,18,32.1,18s16.9,28,16.9,28l33.7,6.6l92.3,25.2l82,65.5l50-22.3
				c0,0,22-19.1,34-13.1s54,17.1,54,17.1l108,52.2l74,44.6l-153,37.8l-243-37.8l-141.4-39.8c0,0-88.9-22.6-86.6-38.6
				C893.3,445.2,921,297.8,921,297.8z" />
				<path fill="#FEC546" d="M1005,461.2c-6-13.4-48-47.4-50-57.4s0-40,0-40s-34-46-34-52s0-14,0-14s-16,38-26,38s-38,12-38,12h-38
				l-30,22.6l-14,9.1h-46.4l-95.4,77.2l-147.9,43.6c0,0,49,29.6,79.6,33.6c30.6,4,260.1,41.9,290.1,45.9s165.7-48,165.7-48
				L1005,461.2z" />
				<path fill="#ED9B18" d="M652.5,370.4l28.2,26.6l29,8.3c0,0,0.7,26.3,0,31.4c-0.7,5.1-2.2,6.7,8.5,10.1c10.7,3.3,50.5-5,58.8,3.3
				c8.3,8.3,26.6,25.4,36.5,33.2s30.8,1.1,30.8,1.1s111.9,125,125.1,128.3c13.3,3.3-212.5-23.1-229-28.4s-111.5-47.1-114.4-59.2
				C623.3,513.1,652.5,370.4,652.5,370.4z" />
				<path fill="#FBAE20" d="M506.5,544.2c5,0.5,47.9-29,51.3-41.6c3.5-12.7,7.8-37.5,7.8-37.5h17.2l6.7-8.3l4.9-41.5l31.7-51.4
				l26.3,6.6l9.5,38.2l18.7,13.3c0,0,3.2,23.2,0,41.5c-3.2,18.3,31.1,12.2,31.1,12.2l18.5,0.3h13.6l11.6-0.3c0,0,9.6,22.1,35.4,37.3
				s115.6,76.6,128.9,79.9s18.3,23.2-15.7,22.4s-382,30.4-377.1,19.1S506.5,544.2,506.5,544.2z" />
				<path fill="#E2571A" d="M1105,335.8l38,24c0,0,6,36,10,42s12,8,18,20s40,24,40,24v18c0,0,56,8,70,14s74-26,80-26s39,4,39,4
				s67,126,77,132s-304.2,49.9-304.2,49.9L1071,521.8c0,0,6-116,14-118S1105,335.8,1105,335.8z" />
				<path fill="#E87413"
					d="M319,347.8c0,0,54,52,100,78s110.5,49.9,111.3,55.9c0.7,6.1,49.6,6,89.9,16.9
				c40.4,11,106.6-44.9,106.6-44.9l86.3,40c0,0,53.9,0.4,59.9,1.2c6,0.8,12-14.8,40,0c28,14.8,166.3,55.1,220,67.3
				c53.7,12.3,146-2,146,3.7c0,5.7-50,108.2-50,108.2s-409.5-31.5-560.1-52.5c-150.6-21-283.9,24-287.9-14S319,347.8,319,347.8z" />
				<path fill="#F5841F" d="M-31,493.8c48-10,74-13.5,86-18.8s14-6.4,30-13.8s52-18.4,52-18.4s70-39.1,76-39.1s36,0,36,0l50-56h20
				c0,0,24,52,30,60s14,25.4,28,34.7s74,47,80,56.1s65.6,70.3,65.6,70.3L679,663.8l-750,10.5L-31,493.8z" />
				<path fill="#F16822" d="M509.8,574.6c12.8-5.6,233.8-112,262.8-99.6c29,12.4,68.4-13.8,68.4-13.8s48-16,64-18.7s24.1,2.7,33,0
				c9-2.7,25-18.7,25-18.7l10.3-10H989l38-18.1c10,2.1,61.9-35.9,61.9-35.9l16.1-24l8,59.9v24.1l14,22.7l6,46.9l33.2,56.7l16.8,92.6
				l-361.6-36.9L509.8,574.6z" />
				<g>
					<path fill="#A63523" d="M1433.6,512.1c0,0,8.1-11-2.5-11c-10.6,0-12.9-6.8-25.4-6.8s-20.5-5.5-20.5-5.5l-21-11.5
					c0,0-11.3-22.5-28.6-15c-17.3,7.4-25.4,17.1-25.4,17.1s-5.3,16.6-17.8,16.6s-5.8-18.5-19.7-9.3c-13.9,9.3-19.7,19-29.3,19
					c-9.6,0-12.6,11.1-24.1,11.1c-11.5,0-37.3,25.4-37.3,25.4s-5.9-23.9-15.5-36.3c-9.6-12.4-26-3.7-26-3.7
					c-29.8,0-37.5-10.3-37.5-10.3c-26-12.4-38.7-20.3-38.7-20.3c-26.9,0-32-18.7-32-18.7c-33.2-11.7-38.9-14-38.9-14
					c-13.5,6.2-22.1,20.2-22.1,20.2c-26,0-40.4,22.1-40.4,22.1c-19.9,2.5-39.4,18.5-39.4,18.5c-65.1,28.3-43.4,28.4-82.7,28.4
					c-17.3,0-30.8,0-30.8,0s-33.7,1.2-48.1,8.7c-14.4,7.4-17.3,1.2-32.7,7.4c-15.4,6.2-24,22.2-47.1,22.2c-23.1,0-32.7,0-32.7,0
					L604.8,643l74.2,20.8l12.3-75h40.4l25-3.7l34.6-2.5l294.2,39.6l47.1,6.2l44.2,7.4l113.3,60.4l143.4-56.7V512.1z" />
					<path fill="#992A1F" d="M1433.6,639.4V512.1c0,0,8.1-11-2.5-11c-10.6,0-12.9-6.8-25.4-6.8s-20.5-5.5-20.5-5.5l-21-11.5
					c0,0-11.3-22.5-28.6-15c0,0-4.6,7.5,0,29.4c4.6,22,12.1,12.6,12.1,33.6c0,21-3.8,26.9-11.3,38.6c-7.5,11.7-19.6,11.9-7.5,30.8
					s18.3,38.9,18.3,48.3l-182-10.9l55-12.5c0,0-11.3-16.4-17.8-33c-3.6-9.1-14.9-23.9-18.3-37.2c-3.4-13.4-17.7-43.5-17.7-43.5
					c-9.6-12.4-26-3.7-26-3.7c-29.8,0-37.5-10.3-37.5-10.3c-26-12.4-38.7-20.3-38.7-20.3c-26.9,0-32-18.7-32-18.7
					c-33.2-11.7-38.9-14-38.9-14s-7.9,18.8,0,31.2c7.9,12.4,14.5,17.9,7.9,28c-6.5,10.2-15.5,10.2-11,17.2c4.5,7,18,4.5,18,23.3
					c0,18.8-8.7,22.6-8.7,32.3c0,9.7,6.8,20.4,10.3,25.8s148.3,63.3,148.3,63.3" />
				</g>
				<g>
					<path fill="#88201B" d="M-29.2,655.9c0,0,15.6-31.3,33.1-31.3c17.5,0,51.4-61,66.2-43c32.9,40.2,184.2,43,184.2,43
					s13.6,7.4,21.4,0c7.8-7.4,25.3-7.4,25.3-7.4s16.5-8.3,25.3,0c8.8,8.3,22.9,16.1,31.1,8.3c8.3-7.8,19.9-18.9,19.9-18.9
					s15.1,0,22.9,0c7.8,0,31.1,0,31.1,0h17.5c0,0,6.1-5.8,11.9-11.3c5.8-5.5,18.5-17.5,18.5-17.5s14-5.9,20.2,0
					c6.2,5.9,15.4,0.2,21.4,5.9c6,5.7,33.1,11.4,33.1,11.4s-2.8-0.7,7.8,0c10.6,0.7,35,0.7,35,0.7h29.2c0,0,33.1,8.1,41.6,0
					c8.5-8.1,48.9-21.9,55.7-28.3c6.8-6.4,5.8-21.2,22.4-21.2c16.5,0,30.1-9.5,40.1,0c10.1,9.5,40.5-103.4,59-103.4
					c18.4,0,25.9,23.1,40.9,23.1c20,0,22.4,29,32.2,29c9.7,0,19.5,20.9,31.1,20.9c11.7,0,20.7-9,32.7,2.3c12,11.3,23.3,13.9,38,27.9
					c14.7,14,31.4,10.4,47,10.4c15.6,0,19.8,23.2,47,15.1c27.2-8.1,49.3,12.4,74.6,12.4c25.3,0,81.7,14.7,91.4,14.7
					s29.2,11.1,40.9,11.1c11.7,0,18.5-12,31.1,0c12.6,12,18,28.1,35,12c17-16.1,13.6-16.1,33.1-16.1s26.5,6.2,33.1,0
					c6.6-6.2,18.1,0.6,25.3-6.2c7.2-6.8,23.3-6.8,23.3-6.8l16.2-15.4h13L1523,1005L-48.6,980V655.9
					C-48.6,655.9-46.7,639.3-29.2,655.9z" />
					<path fill="#771313" d="M1530.5,894.9v-318h-13l-16.2,15.4c0,0-16.2,0-23.3,6.8c-7.2,6.8-18.7,0-25.3,6.2
					c-6.6,6.2-13.6,0-33.1,0s-16.1,0-33.1,16.1c-17,16.1-22.4,0-35-12c-12.6-12-19.5,0-31.1,0c-11.7,0-31.1-11.1-40.9-11.1
					s-66.1-14.7-91.4-14.7c-25.3,0-47.3-20.5-74.6-12.4c-27.2,8.1-31.4-15.1-47-15.1c-15.6,0-32.3,3.5-47-10.4
					c-14.7-14-26-16.5-38-27.9c-12-11.3-21-2.3-32.7-2.3c-11.7,0-21.4-20.9-31.1-20.9c-9.7,0-12.2-29-32.2-29
					c-15,0-22.5-23.1-40.9-23.1c0,0-9.1,4.6-1.7,13.1s9.7,11.6,7.3,23.6c-2.3,12-18.9,39.4,15.3,73.9c34.2,34.5,52.9,51.9,43.6,92.1
					c-9.3,40.2,16.4,47.2,38.4,49.5c22,2.3,21.6,20.6,22,53.4c0.4,32.8-38.8,50.9,4.3,85c43,34.1,48.7,85.9,48.7,85.9
					s508.3-28.5,507.7-26.3" />
				</g>
				<path fill="#771313" d="M728.6,442.8" />
			</g>
			<g>
				<rect x="-34.4" y="1059.9" fill-rule="evenodd" clip-rule="evenodd" fill="#A03C1A" width="1586.4"
					height="168.2" />
			</g>
			<path fill="#530000" d="M1197.8,823.5c0,0-25.7-8.9-37.6-20.9s-17.9-26-29.8-40s-35.8-12-35.8-12s-16.4,2-25.3-14
			c-8.9-16-37.3-86-37.3-86h-8.9v23.5l-13.4,18.5v22c0,0-11.9,46-14.9,58s-6,24-13.4,28c-7.5,4-19.4,14-19.4,14l-22.4,68H862
			c0,0-32.8-40-58.1-42c-25.3-2-71.6-8-82,6c-10.4,14-28.3,38-56.7,46c-28.3,8-64.1-2-95.4-10c-31.3-8-58.1-32-79-36
			s-40.3-10-49.2-20s-5.1-45.6-10.8-64.8c-5.6-19.2-20.5-11.2-29.5-33.2c-8.9-22-13.4-32-13.4-32l-7.5-6l-7.5,16c0,0,0,4-16.4,22
			s-16.4,18-16.4,18v26.5v11.5c0,0,0,16-13.4,34s-10.4,32-10.4,38s-31.3,14-31.3,14l-17.9,66l58.1,108l1001.9,104
			c0,0,52.2-122,53.7-144c1.5-22-11.9-250-11.9-250L1197.8,823.5z" />
			<path fill="#470B0A" d="M1032,650.6l8.9,104l14.9,34l11.7,22l50.9,30.4v18.5v55.8l12,63.3c0,0,40.3,62,41.7,68s109.7,6,109.7,6
			s68.5-42,68.1-50c-0.4-8-16.8-172-16.8-172l-99.9-42l-43.1-10.7l-1.7-9.3l-10.4-42l-31.3-10l-7.5-24l-11.9,6l-22.4-14.7
			c0,0-11.9-15.3-22.4-15.3s-32.8-37.2-32.8-37.2L1032,650.6z" />
			<path fill="#470B0A" d="M177,963l-34.7-99.3c0,0-19.3-22.7-19.3-21.7s-8-10.6-8-10.6s12-8.4,0-8.4s-30-8-30-8v16.4L70.1,807
			c0,0-1.1-14-9.1-24s-4,12.6-20-14.7c-16-27.3-22-33-22-33h-40L-48.6,724l35.6,292.7l226,10.4L177,963z" />
			<g>
				<g>
					<path fill="#3A0013" d="M132.1,1016.6c0,0-4.7-33.9,0-38.5c4.7-4.7,4.7-12.8,4.7-12.8v-12.8c0-8.2,0-8.2,0-8.2l-3.5-15.2
					l5.3-5.3c0-8.8,13.4-8.8,6.7-15.5c-6.7-6.7,2.6-6.7-2-11.4c-4.7-4.7,4.7-4.7,0-9.3c-4.7-4.7-8.5-9.6-4.7-13.4
					c3.8-3.8-1-5.7,3.8-10.5c4.8-4.8-0.4,0.4,4.8-4.8c5.3-5.3,5.3-12.7,5.3-12.7V838v-9.3l6.2-6.2l-2-30V782v-10.5v-9.3
					c0,0,9.9-2.3,9.9-9.9c0-7.6,0.9-8.5,6.1-13.7c6.4-6.4,7.9-12.8,12.8-12.8c5,0,5,0,5,0l0,0h8.2c0-16.1,0-23.1,0-23.1
					s5.8,3.5,5.8-5.8c0-9.3,5.8-15.2,0-21c-5.8-5.8-9.3-9.3-9.3-9.3s-5.8-3.5,0-9.3c5.8-5.8,5.8-11.7,5.8-11.7v-10.5
					c0-5.8,15.2-46.7,15.2-46.7s3.5-8.8,8.8-8.8c5.3,0,1.8-5.3,5.3-8.8c3.5-3.5,3.5-5.8,3.5-12.8c0-7,3.5-10.5,3.5-10.5l11.1-11.1
					l9.3-9.3h11.1c9.3,1.8,18.1-7,18.1-7l16.9,11.1c0,0-5.3,11.1,0,16.3c5.3,5.3,12.8,5.3,19.8,5.3s3.5,9.9,7,13.4
					c3.5,3.5,3.5,1.2,3.5,9.3c0,8.2,5.8,3.5,10.5,8.2c4.7,4.7-1.8,5.3,4.7,11.7c6.4,6.4-1.2-1.2,6.4,6.4c7.6,7.6,7.6,7.6,7.6,15.8
					c0,8.2-7.6,13.4,0,21c7.6,7.6,7.6,16.3,7.6,16.3v23.3v9.3v12.8l8.8,24.5c0,0,4.7,0,10.5,0c5.8,0,9.3,3.5,9.3,3.5s0,5.8,0,11.7
					c0,5.8,4.7,3.5,4.7,10.5c0,7,7,14,7,14c6.4,6.4,5.8,5.8,9.9,9.9c4.1,4.1,10.5,10.5,10.5,10.5s0,8.8,0,13.4c0,4.7,0,18.7,0,18.7
					l7.6,11.7H452l4.7,18.7c0,0,10.5,37.4,10.5,43.2c0,16.3,5.3,21.6,5.3,21.6s-4.4,5.5,0,9.9c4.4,4.4,4.4,5.8,4.4,11.7
					c0,5.8,0,11.7,0,11.7s-3.4,9.5,0,12.8c3.4,3.4-1.8,35.7,3.4,40.9c5.2,5.2,5.2,17.5,5.2,17.5H132.1z" />
					<path fill="#310004" d="M957,1025c-4-6-19-46-19-46s-7-26-15-42s-10-14-27.4-22.8c0-1.1,0-1.5,0-1.5c0-1,0-2.4,0-4.3
					c0-6-1.8-8.5-3.9-10.7c4.1-9.5,13.2-20.6,13.2-28.7c0-14-8-18-8-18l-13.2,5.6c-0.7-1.3-2.5-2.7-6.6-4.3
					c-15.2-6.1-15.2-15.5-19.8-10.8c-4.7,4.7-10.8,4.7-10.8,4.7c-2-2-3.6-3.9-4.8-5.5l-3.8-8.2c0,0,19-23.5,1-57.5
					c-1.9-3.6-3.9-7.4-5.9-11.2c0-0.1-0.1-0.1-0.1-0.2c-5.5-10.7-16-62.5-16-62.5l-19.8-46l-27.3-4.9c0-10.2-4-12.3-6.6-16.8
					c-1.6-2.8-3.2-5-4.6-6.7l14.3-17.2h-10.6l8.3-9.2c0,0,0-4.7,0-9.3c0-4.7-9.3-7-9.3-14s4.1-19.3,0-23.3c-4.1-4.1,0.3-12-4.1-16.3
					l-1.7-5.2c0.1-3.8,1.4-8.3-2.7-12.3c-0.8-0.8-1.5-1.5-2.2-2.1l-4-11.9c0-4.6-1.3-5.9-2.7-7.3l-2.9-7.7c0-5.2-1.9-7.5-3.6-9.6
					l-2.7-7.2c0.3-4.9,2.9-2.6-3.3-8.9l-15.5-41.7L701,402.1l-10.4,9.7c-0.1,0.1-0.3,0.3-0.4,0.4c0,0-26.8-13.4-34.9-18.8
					c-5.3-3.6-11.5,12.9-15.1,24.6c-0.7,0-1.5,0-2.5,0c-7,0,1.2,0-12.8,0c-14,0-1.2,0-14,0c-12.8,0-12.8,8.1-12.8,8.1s0,4.2,0,8.2
					c0,0,0.1,0.1,0.3,0.3c-0.1-0.1-0.2-0.2-0.3-0.3c-9.9-9.9-4.7-15.2-4.7-15.2c-10.5,0-10.5,0-14,3.5c-3.5,3.5-2.9-1.8-8.2,3.5
					c-5.8,5.8,8.2,1.2,1.2,12.8c-7,11.7-7,11.7-7,11.7s-10.5,1.2-14-2.3c-3.5-3.5-7-3.5-11.7-3.5c-0.7,0-1.1,0-1.3,0
					c-0.3,0-0.4,0-0.4,0c-0.4,0-1.3,0-2.9,0c-7,0-7.6,0.6-12.3,5.3c-4.7,4.7,0,1.8,0,9.3c0,1.4,0,2.1,0,2.6c0,0.3,0,0.4,0,0.4
					c0,0.6,0,1.9,0,4.6c0,10.5-4.4,14.9-4.4,14.9s-4.5-4.5-7.1-4l-16.1-9v20l-22.2,13.2c-4.4,7.2-1.9,19.9,1.9,34.2
					c-6.3,0-6.3,0-6.3,0s-1.2,20.6-1.2,27.7s11.7,7,5.8,12.8c-5.8,5.8-3.5,5.8-3.5,12.8c0,7-5.8,1.2,0,7c5.8,5.8,5.8,5.8,5.8,11.7
					c0,5.8,6.4,21.6,0,28c-6.4,6.4-6.4-2.3-6.4,6.4c0,8.8,0.9,7.9-3.8,12.5c-4.7,4.7-0.4,8.3-4.7,12.5c-4.2,4.2-4.2-6.7-4.2,4.2
					c0,10.9,0,10.9,0,16.8c0,5.8-4.3,8.5,0,12.8c4.3,4.3-5.4-1.2-5.4,9.3c0,10.5,0,17.5,0,17.5s0,4.7,0,10.5c0,5.8,0,4.7,0,14
					c0,0.2,0,0.4,0,0.6c0,1.5,0,2.1,0,2.2c0,1.3,0,3.4,0,6.5c0,18.7,0,10.5,0,18.7c0,8.2,8.2,16.3,0,24.5c-8.2,8.2-1.2,3.5-1.2,15.2
					c0,11.7-10.5,5.8-5.3,16.9c2.5,5.2,7.9,24.5,13,44.1L413,967c0,0-74,46-66,54s134,30,134,30l15.4-9c0,7.9,0,14.6,0,14.6
					s-7-2.3-7,7s4.7,14,4.7,14h442.4c0,0,3.5-19.8,0-23.3c-3.5-3.5,2.3-8.2-3.5-14c-5.8-5.8-0.6-0.6-5.8-5.8
					C927.1,1034.5,961,1031,957,1025z M600.2,436.7C600.2,436.7,600.2,436.7,600.2,436.7C600.2,436.7,600.2,436.7,600.2,436.7z
					 M602.1,438.6C602.4,438.9,602.4,438.9,602.1,438.6L602.1,438.6z" />
					<path fill="#32000A" d="M1426.6,596.7c-7,0-17.5,0-17.5,0s-7,1.2-7,7c0,5.8,0,5.8,0,5.8s-9.3,7-12.8,10.5
					c-3.5,3.5,2.3-2.3-3.5,3.5c-5.8,5.8-7.9,0.9-12.8,5.8c-9.3,9.3-10.5,9.3-23.3,9.3c-12.8,0-21,0-21,0c0,10.5-11.7,10.5-5.8,16.3
					c5.8,5.8,2.9,1.8-1.2,5.8c-4.1,4.1-3.5,4.1-12.8,4.1c-9.3,0,4.7,0-9.3,0c-14,0-9.6,4.4-14,0c-4.4-4.4,5.8-14.6-8.8,0
					c-14.6,14.6-21.6,14.6-21.6,14.6c0,9.3-5.3,8.8-5.3,14.6c0,12.3-7,4.7-14.6,12.3c-11.7,11.7-11.7,12.8-11.7,17.5s3.5,10.5,0,14
					c-3.5,3.5,2.3,9.3-3.5,9.3s-5.8,8.2-5.8,8.2s5.8,4.7,0,10.5c-5.8,5.8-8.2,8.2-11.7,11.7c-3.5,3.5-3.5,3.5-3.5,10.5
					c0,7-3.5,3.5-3.5,10.5c0,7-11.7,3.5,0,15.2c11.7,11.7,15.8,16.9,11.7,21c-7.6,7.6-7.6,8.2-7.6,12.8c0,4.7,0,12.8,0,17.5
					c0,4.7,0-2.5,0,10.5c0,13,0,13,0,13s-4.1,22-4.1,37.2c0,15.2-5.8,50.2-5.8,67.7c0,17.5,0,56,0,64.2s4.7,8.2,4.7,8.2h232.3V596.7
					z" />
				</g>
				<path fill="#31130F" d="M701,402.1c-10.9-26.6-40.7-19.3-40.7-19.3c-0.5-2.6-2.8-0.7-2.8-0.7s-1-3.5-1.9-6.6
				c-0.9-3.1-3.2-2.4-3.2-2.4s-2.5-7.2-3.5-10.1c-1-2.9-1.5-1.5-1.5-1.5s-0.6-1-0.6-2.4c0-1.3,2.4-1,5-1c2.6,0,2.1,2.1,4.1,2.1
				c2.1,0,1.2-2.6,3.1-4.6c1.9-1.9,0.9-3.4,0.9-3.4s-2.2-3.2-4-3.2c-1.8,0-3.1,1.5-6,1.5c-2.9,0-12.4-10-16.6-12.6
				c-4.3-2.6-5-6.3-6.2-9.9c-1.2-3.5-6-14.3-7.1-17.3c-1.1-3-5.4-5.4-5.4-6.8c0-1.5,2.2,0,4.6,0c2.4,0,0.7-2.3,1.5-3.1
				c0.8-0.8,0,0,0-1.8c0-1.8,0-0.8,1.2-2.1c1.2-1.2,0-1.7-1.7-3.4c-1.7-1.7,0-1.6,0-2.4c0-0.7,0-1.3,0-3.1c0-1.8,2.3-0.8,3.6-2.1
				c1.3-1.3,2.1-2.1,0.2-2.1c-1.9,0-1.3-1.3-3.1-3.1c-1.8-1.8-8.1-4.9-13.7-3.7c-5.6,1.2-10.7,6.5-13.1,7.4
				c-2.4,0.9-2.9,2.9-1.9,3.8c1,1,2.1,0.9,2.1,3.9c0,3,2.2,2.2,3.8,3.8c1.5,1.5,3.5,1.7,4.9,3.1c1.4,1.4,1.2,3.1,1.2,5.6
				c0,2.5-7.1,6.4-8.3,6.4c-1.3,0-1.5,1.5-3.3,3.3c-1.8,1.8-5.6,10-7.8,14.3c-2.2,4.3-3.5,6.8-3.5,10.1c0,3.4,13.1,21.6,13.1,21.6
				s-12.9,0.7-16.8,0c-3.8-0.7-4.4,1.8-4.4,1.8c0,2.9,5.1,2.8,5.1,2.8c-5.4,3.2-4.6,8.4-4.6,9.3c0,5.9,15.7,3.4,15.7,3.4l2.5,9.6
				l-1.5,0l0,1.5h2.4v2.4l-6.9,4.4c-2.2-2.2-14.1-11.3-27.8-10.3c-13.7,1-29.6,11.9-33.7,29.9c-4.1,17.9,7.2,40.6,36.2,41.3
				c29,0.7,34-31,34-31l1.5,0c1.6,10.4,10.6,7.2,10.6,7.2s3.5,6.3,2.5,7.4c-1,1-1.8,4.5-0.7,7.9c1.1,3.5,4.1,1.8,14.9,3.1
				c10.7,1.3,9-1.3,9.4-3.4c0.4-2.1-6.3-3.8-6.3-3.8c-5.6-1.5-8.5-5.1-8.5-5.1l5.3-12.6c0,0,0,1.6,1.5,1.6c1.5,0,1.2-0.6,2.1-1.5
				c0.9-0.9-1.6-3.7-1.6-3.7s7.6-16.6,9.7-18.7c2.1-2.1-1.8-17.4-1.8-17.4s10.4-14.4,12.1-14.4c1.6,0,2.1,2.1,2.1,2.1
				c0.7,2,1.6,1.6,1.6,1.6c0.7,2.1,1.5,1.5,1.5,1.5l2.6,9.6c-22.5,10.4-17.8,41.2-17.8,41.2c6.6,27.5,37.2,24.9,45.3,22.9
				C688.5,448.9,711.9,428.8,701,402.1z M589.5,368.3c0,0,2-1.1,0.4-2.6c0,0,3.9-0.8,5.3-2.2c1.4-1.4,2.2,0.5,3.3,0.5
				c1.1,0-0.5,1.1,1.1,4.9c1.6,3.8,3.5,9.6,3.5,14.6v2.1l-7.6,4v-2.2l1.4-1.4l0-0.8l-2.1,0L589.5,368.3z M558.2,449.3
				c-24.9-5.3-33.1-21.5-24.9-40c8.2-18.5,34.3-23,46.5-10.9l-17.9,12.9c0,0-10.1-0.9-10.1,8.5c0,9.4,5.3,9.9,7.6,9.9
				c2.4,0,6.9-2.6,7.7-5.4l20.8,1.1C587.9,425.5,583,454.6,558.2,449.3z M567.9,420.5c0-1.6-2.9-5.4-2.9-5.4l17.4-12.8
				c5.7,1.8,6.6,18.2,6.6,18.2L567.9,420.5z M597,411.7c0.9,2.2,0.9,2.5,0.9,3.4c0,0.9-0.4,4-2.4,4c-1.9,0,2.3-11-7.8-21l5.7-4.3
				l4.9,15.3C598.3,409,596.1,409.5,597,411.7z M603.3,413h-1.2c0,0-3.8-19.4-5.4-21l7.4-3.7C604.1,388.3,604.9,408.3,603.3,413z
				 M618,390.4c3.2,3.2,2.2,7.5,1.1,8.6c-1.1,1.1-1.7,1.7-1.7,1C617.5,399.2,618,390.4,618,390.4z M619.4,407.7
				c-2.1,2.1-3.2,8.1-4.1,11.5c-0.9,3.4-1.5,2.8-1.5,2.8c0-1,1.6-10.7,1.6-10.7l7.4-10.1C622.7,403,621.5,405.6,619.4,407.7z
				 M638.3,372c0,0-3.1,3.1-4.7,6c-1.6,2.9-1.5,1.5-1.5,1.5l-1.2-5.1c0,0,3.8-2.4,6.3-3.4S638.3,372,638.3,372z M643.1,355.3
				c0,0-1.8-1.8-2.7,0.5c-0.9,2.4,1.6,3.4,2.4,4.1c0.7,0.7,0,2.8,0,4c0,1.2-13.4,6.2-13.4,6.2c-1.3,0-3.4-7.6-3.4-10
				c0-2.4-1.7-12.1-1.7-14.1c0-2.1,0-4.5,1.3-3.2c1.3,1.3,7.3,7.3,12.3,8.6c5,1.3,7.3,2.3,8.2,3.2
				C647.1,355.6,643.1,355.3,643.1,355.3z M678.2,444.9c-20.4,9.3-34-11.6-35.9-16.9c-1.9-5.3-4.3-24.9,12.9-34.6l9.3,24
				c0,0,2.2,6.6,7.9,3.4c0,0,2.8-1,1.2-5.3c-1.6-4.3-5.6-2.4-5.6-2.4l-7.5-22.4c0,0,20-7.2,30.3,8.1
				C701.1,414.2,698.6,435.7,678.2,444.9z" />
			</g>
		</g>
	</g>
</svg>
